<svg width="109" height="39" viewBox="0 0 109 39" fill="none" xmlns="http://www.w3.org/2000/svg">
<path fill-rule="evenodd" clip-rule="evenodd" d="M45.8587 14.1341V8.86416H49.4359V9.93404H47.0766V11.0693H49.0201V12.0567H47.0766V14.1341H45.8587ZM52.3465 13.0954C52.5536 13.0954 52.7296 13.0518 52.8729 12.9661C53.0162 12.8789 53.133 12.7637 53.2217 12.6204C53.3105 12.4771 53.3744 12.3121 53.4117 12.1267C53.4491 11.9414 53.4678 11.7514 53.4678 11.5583V8.86416H54.6841V11.5583C54.6841 11.9259 54.6389 12.2669 54.547 12.583C54.4551 12.9007 54.315 13.1779 54.1234 13.4147C53.9334 13.6514 53.6905 13.8382 53.3962 13.9753C53.1018 14.1108 52.7514 14.1793 52.3465 14.1793C51.926 14.1793 51.5663 14.1077 51.2704 13.9644C50.973 13.8211 50.7316 13.628 50.5463 13.3882C50.3609 13.1484 50.2239 12.8712 50.1382 12.5535C50.051 12.2373 50.0074 11.9056 50.0074 11.5583V8.86416H51.2253V11.5583C51.2253 11.7623 51.2455 11.9554 51.2844 12.1376C51.3249 12.3214 51.3888 12.4849 51.4775 12.6282C51.5663 12.7715 51.6815 12.8852 51.8233 12.9693C51.9634 13.0534 52.1378 13.0954 52.3465 13.0954ZM56.8441 11.1207V14.1341H55.6278V8.86416H56.5778L59.0337 11.9601V8.86416H60.2515V14.1341H59.2719L56.8441 11.1207ZM61.2606 14.1341V8.86416H63.2291C63.6636 8.86416 64.0451 8.93424 64.3722 9.07284C64.6976 9.21144 64.9717 9.39832 65.1913 9.63659C65.4125 9.8733 65.5775 10.1521 65.6897 10.4713C65.8002 10.7906 65.8563 11.1316 65.8563 11.4929C65.8563 11.8932 65.794 12.256 65.671 12.5799C65.5464 12.9039 65.3704 13.1811 65.1399 13.4115C64.9094 13.6405 64.6322 13.8196 64.3083 13.9457C63.9844 14.0718 63.6246 14.1341 63.2291 14.1341H61.2606ZM64.6167 11.4929C64.6167 11.2593 64.5855 11.0475 64.5232 10.8575C64.4625 10.6675 64.3722 10.5025 64.2522 10.3639C64.1339 10.2253 63.9875 10.1194 63.8146 10.0446C63.6418 9.96986 63.4456 9.93404 63.2291 9.93404H62.4785V13.0658H63.2291C63.4518 13.0658 63.6496 13.0269 63.8224 12.9475C63.9953 12.868 64.1401 12.7575 64.2569 12.6173C64.3722 12.4756 64.4625 12.3105 64.5232 12.119C64.5855 11.929 64.6167 11.7203 64.6167 11.4929ZM72.4625 14.1341V10.9806L71.3194 13.2729H70.6669L69.5238 10.9806V14.1341H68.306V8.86416H69.6266L70.9923 11.6191L72.3659 8.86416H73.6803V14.1341H72.4625ZM76.1222 8.86416H77.2201L79.1434 14.1341H77.8959L77.4879 12.9552H75.8481L75.4463 14.1341H74.1989L76.1222 8.86416ZM77.287 12.1158L76.6719 10.2533L76.0412 12.1158H77.287ZM80.8798 11.1207V14.1341H79.6635V8.86416H80.6135L83.0694 11.9601V8.86416H84.2872V14.1341H83.3076L80.8798 11.1207ZM86.7291 8.86416H87.8285L89.7503 14.1341H88.5044L88.0948 12.9552H86.455L86.0547 14.1341H84.8073L86.7291 8.86416ZM87.8955 12.1158L87.2788 10.2533L86.6481 12.1158H87.8955ZM93.6996 13.6156C93.2994 13.9862 92.8369 14.1715 92.3121 14.1715C91.9648 14.1715 91.6393 14.1061 91.3325 13.9753C91.0257 13.8445 90.7563 13.6592 90.5258 13.4224C90.2969 13.1842 90.1147 12.8992 89.9808 12.5644C89.8468 12.2311 89.7799 11.8636 89.7799 11.4618C89.7799 11.102 89.8468 10.7594 89.9808 10.4386C90.1147 10.1162 90.2985 9.83749 90.5336 9.59922C90.7688 9.3625 91.0475 9.17407 91.3683 9.03547C91.6907 8.89687 92.0364 8.82679 92.4086 8.82679C92.8976 8.82679 93.3259 8.92957 93.6919 9.13513C94.0578 9.3407 94.3335 9.62102 94.5157 9.97765L93.6109 10.6613C93.4925 10.423 93.3197 10.2393 93.0954 10.1085C92.8696 9.97609 92.6266 9.91068 92.3635 9.91068C92.161 9.91068 91.9772 9.95273 91.8106 10.0337C91.6455 10.1147 91.5023 10.2284 91.3839 10.3748C91.2656 10.5211 91.1737 10.6909 91.1098 10.884C91.0444 11.0771 91.0133 11.2842 91.0133 11.5069C91.0133 11.7343 91.0475 11.9445 91.116 12.1376C91.1861 12.3308 91.2827 12.4974 91.4057 12.6391C91.5303 12.7793 91.6767 12.8898 91.848 12.9693C92.0177 13.0487 92.2077 13.0876 92.4149 13.0876C92.8914 13.0876 93.3181 12.868 93.6996 12.4273V12.2638H92.6749V11.3808H94.7088V14.1341H93.6996V13.6156ZM99.2157 13.0658V14.1341H95.5108V8.86416H99.1487V9.93404H96.7286V10.9572H98.8061V11.9445H96.7286V13.0658H99.2157ZM99.957 14.1341V8.86416H102.333C102.579 8.86416 102.808 8.91711 103.019 9.01989C103.229 9.12423 103.411 9.25972 103.565 9.42791C103.718 9.59766 103.838 9.78765 103.925 9.99945C104.012 10.2128 104.054 10.4277 104.054 10.6457C104.054 10.8093 104.036 10.9665 103.995 11.1176C103.956 11.2687 103.899 11.4104 103.825 11.5443C103.751 11.6782 103.66 11.7982 103.554 11.9041C103.447 12.0099 103.327 12.1003 103.193 12.175L104.352 14.1341H102.978L101.969 12.4351H101.175V14.1341H99.957ZM101.175 11.373H102.288C102.432 11.373 102.556 11.306 102.659 11.169C102.763 11.0335 102.815 10.8591 102.815 10.6457C102.815 10.4277 102.755 10.2548 102.637 10.1271C102.519 9.99789 102.389 9.93404 102.251 9.93404H101.175V11.373ZM108.092 10.409C108.078 10.3888 108.025 10.3514 107.937 10.2969C107.848 10.2424 107.736 10.1863 107.603 10.1271C107.469 10.0664 107.323 10.015 107.164 9.96986C107.007 9.92626 106.848 9.90445 106.689 9.90445C106.255 9.90445 106.037 10.0493 106.037 10.3421C106.037 10.4308 106.06 10.5056 106.107 10.5648C106.154 10.6239 106.224 10.6769 106.316 10.7236C106.406 10.7703 106.521 10.8139 106.66 10.8544C106.798 10.8934 106.96 10.9385 107.142 10.9868C107.395 11.0569 107.622 11.1316 107.826 11.2142C108.029 11.2951 108.2 11.3964 108.342 11.5178C108.483 11.6393 108.591 11.7873 108.669 11.9601C108.745 12.133 108.784 12.3401 108.784 12.583C108.784 12.8805 108.728 13.1312 108.616 13.3368C108.505 13.5424 108.357 13.7074 108.175 13.8336C107.991 13.9597 107.781 14.0516 107.544 14.1092C107.306 14.1653 107.061 14.1933 106.809 14.1933C106.616 14.1933 106.418 14.1793 106.214 14.1497C106.012 14.1201 105.814 14.0765 105.621 14.0205C105.428 13.9628 105.241 13.8943 105.06 13.8149C104.88 13.737 104.713 13.6451 104.559 13.5408L105.095 12.4787C105.113 12.5036 105.179 12.5519 105.288 12.6204C105.395 12.6905 105.531 12.759 105.691 12.8275C105.853 12.8976 106.032 12.9599 106.23 13.0144C106.428 13.0689 106.629 13.0954 106.831 13.0954C107.261 13.0954 107.477 12.9646 107.477 12.7014C107.477 12.6033 107.445 12.5208 107.381 12.4569C107.315 12.3931 107.227 12.3339 107.113 12.2825C106.999 12.2311 106.864 12.1828 106.708 12.1376C106.552 12.094 106.382 12.0442 106.2 11.9897C105.957 11.915 105.747 11.8355 105.57 11.7483C105.39 11.6611 105.244 11.5614 105.127 11.4478C105.01 11.3341 104.925 11.2033 104.867 11.0538C104.811 10.9058 104.782 10.7329 104.782 10.5352C104.782 10.258 104.834 10.0119 104.939 9.80011C105.042 9.58676 105.183 9.40766 105.361 9.26128C105.54 9.11645 105.746 9.00588 105.981 8.93113C106.216 8.85793 106.465 8.82056 106.727 8.82056C106.91 8.82056 107.091 8.83769 107.269 8.87195C107.448 8.90621 107.617 8.95137 107.781 9.00588C107.944 9.06038 108.097 9.12112 108.237 9.1912C108.379 9.25972 108.508 9.3298 108.627 9.39832L108.092 10.409ZM47.2915 16.8688H48.3894L50.3127 22.1403H49.0653L48.6572 20.9599H47.0158L46.6156 22.1403H45.3682L47.2915 16.8688ZM48.4563 20.1205L47.8396 18.2579L47.2089 20.1205H48.4563ZM53.8384 18.4137C53.8229 18.3934 53.7715 18.356 53.6827 18.3015C53.5924 18.247 53.4818 18.191 53.3479 18.1318C53.214 18.0726 53.0691 18.0197 52.9103 17.9761C52.7514 17.9309 52.5941 17.9091 52.4353 17.9091C51.9992 17.9091 51.7828 18.0539 51.7828 18.3467C51.7828 18.4355 51.8061 18.5102 51.8529 18.5694C51.8996 18.6286 51.9681 18.6815 52.06 18.7298C52.1519 18.7765 52.2671 18.8186 52.4057 18.859C52.5443 18.898 52.7047 18.9431 52.8885 18.993C53.1408 19.0615 53.3681 19.1378 53.5706 19.2188C53.7746 19.2998 53.9459 19.4026 54.0876 19.5225C54.2278 19.6439 54.3368 19.7919 54.4131 19.9647C54.491 20.1376 54.5283 20.3463 54.5283 20.5877C54.5283 20.8851 54.4723 21.1359 54.3617 21.3414C54.2496 21.547 54.1032 21.7136 53.9194 21.8398C53.7372 21.9659 53.527 22.0562 53.2887 22.1139C53.052 22.1699 52.8059 22.1995 52.5536 22.1995C52.3605 22.1995 52.1628 22.1839 51.9603 22.1543C51.7579 22.1248 51.5585 22.0812 51.367 22.0251C51.1739 21.9675 50.987 21.9005 50.8063 21.8211C50.6257 21.7417 50.4575 21.6498 50.3049 21.5454L50.839 20.4849C50.8593 20.5098 50.9231 20.5565 51.0321 20.6251C51.1412 20.6951 51.2766 20.7637 51.4371 20.8337C51.5975 20.9023 51.7765 20.9645 51.9743 21.0191C52.1737 21.0736 52.373 21.1 52.577 21.1C53.0068 21.1 53.2217 20.9692 53.2217 20.7076C53.2217 20.6079 53.1906 20.5269 53.1252 20.4615C53.0613 20.3977 52.9726 20.3401 52.8589 20.2871C52.7452 20.2357 52.6097 20.1874 52.454 20.1423C52.2982 20.0987 52.1285 20.0488 51.9447 19.9943C51.7034 19.9196 51.4931 19.8402 51.314 19.753C51.1365 19.6673 50.9885 19.5661 50.8733 19.4524C50.7565 19.3387 50.6693 19.2079 50.6132 19.0599C50.5556 18.9104 50.5276 18.7376 50.5276 18.5398C50.5276 18.2626 50.579 18.0181 50.6833 17.8047C50.7876 17.5914 50.9278 17.4123 51.1069 17.2659C51.2844 17.1211 51.4916 17.0105 51.7267 16.9358C51.9619 16.8626 52.2095 16.8252 52.4727 16.8252C52.6549 16.8252 52.8355 16.8423 53.0146 16.8766C53.1922 16.9108 53.3635 16.956 53.527 17.0105C53.6889 17.065 53.8416 17.1273 53.9833 17.1958C54.1234 17.2659 54.2542 17.3344 54.3726 17.4045L53.8384 18.4137ZM58.4029 18.4137C58.3889 18.3934 58.336 18.356 58.2472 18.3015C58.1584 18.247 58.0463 18.191 57.9139 18.1318C57.78 18.0726 57.6336 18.0197 57.4748 17.9761C57.3175 17.9309 57.1586 17.9091 56.9998 17.9091C56.5653 17.9091 56.3473 18.0539 56.3473 18.3467C56.3473 18.4355 56.3706 18.5102 56.4174 18.5694C56.4641 18.6286 56.5342 18.6815 56.626 18.7298C56.7164 18.7765 56.8316 18.8186 56.9702 18.859C57.1088 18.898 57.2708 18.9431 57.453 18.993C57.7053 19.0615 57.9326 19.1378 58.1367 19.2188C58.3391 19.2998 58.5104 19.4026 58.6521 19.5225C58.7923 19.6439 58.9013 19.7919 58.9792 19.9647C59.0555 20.1376 59.0928 20.3463 59.0928 20.5877C59.0928 20.8851 59.0383 21.1359 58.9262 21.3414C58.8156 21.547 58.6677 21.7136 58.4855 21.8398C58.3017 21.9659 58.0915 22.0562 57.8532 22.1139C57.6165 22.1699 57.372 22.1995 57.1197 22.1995C56.9266 22.1995 56.7288 22.1839 56.5248 22.1543C56.3224 22.1248 56.1246 22.0812 55.9315 22.0251C55.7384 21.9675 55.5515 21.9005 55.3708 21.8211C55.1902 21.7417 55.0236 21.6498 54.8694 21.5454L55.4051 20.4849C55.4238 20.5098 55.4892 20.5565 55.5967 20.6251C55.7057 20.6951 55.8412 20.7637 56.0016 20.8337C56.1635 20.9023 56.3426 20.9645 56.5404 21.0191C56.7382 21.0736 56.9391 21.1 57.1415 21.1C57.5713 21.1 57.7878 20.9692 57.7878 20.7076C57.7878 20.6079 57.7551 20.5269 57.6912 20.4615C57.6258 20.3977 57.5371 20.3401 57.4234 20.2871C57.3097 20.2357 57.1742 20.1874 57.0185 20.1423C56.8628 20.0987 56.693 20.0488 56.5108 19.9943C56.2679 19.9196 56.0576 19.8402 55.8801 19.753C55.701 19.6673 55.5546 19.5661 55.4378 19.4524C55.321 19.3387 55.2354 19.2079 55.1777 19.0599C55.1217 18.9104 55.0921 18.7376 55.0921 18.5398C55.0921 18.2626 55.145 18.0181 55.2478 17.8047C55.3522 17.5914 55.4939 17.4123 55.6714 17.2659C55.8505 17.1211 56.0561 17.0105 56.2912 16.9358C56.5264 16.8626 56.7755 16.8252 57.0372 16.8252C57.2209 16.8252 57.4016 16.8423 57.5791 16.8766C57.7582 16.9108 57.928 16.956 58.0915 17.0105C58.255 17.065 58.4076 17.1273 58.5478 17.1958C58.6895 17.2659 58.8188 17.3344 58.9371 17.4045L58.4029 18.4137ZM62.114 22.1839C61.7232 22.1839 61.3681 22.1076 61.0457 21.955C60.7249 21.8008 60.4493 21.5984 60.2219 21.3492C59.9945 21.1 59.817 20.8135 59.6909 20.4911C59.5647 20.1703 59.5024 19.8386 59.5024 19.4976C59.5024 19.1503 59.5678 18.817 59.6986 18.4946C59.8295 18.1738 60.0132 17.8904 60.2484 17.6459C60.4835 17.3998 60.7607 17.2052 61.0831 17.0588C61.4039 16.9124 61.7559 16.8392 62.1374 16.8392C62.5283 16.8392 62.8849 16.9171 63.2057 17.0697C63.5281 17.2239 63.8022 17.4263 64.0296 17.6786C64.2569 17.9309 64.4329 18.2174 64.5575 18.5398C64.6805 18.8606 64.7428 19.1876 64.7428 19.5194C64.7428 19.8651 64.6774 20.1999 64.545 20.5223C64.4142 20.8431 64.232 21.1265 64 21.371C63.7679 21.6171 63.4907 21.8133 63.1684 21.9612C62.8475 22.1107 62.4956 22.1839 62.114 22.1839ZM60.742 19.5116C60.742 19.7156 60.7716 19.9118 60.8308 20.1018C60.89 20.2933 60.9772 20.4615 61.094 20.611C61.2108 20.759 61.3556 20.8773 61.5285 20.9677C61.7014 21.0564 61.8991 21.1 62.1218 21.1C62.3554 21.1 62.5579 21.0533 62.7307 20.9599C62.9036 20.8649 63.0469 20.7434 63.1621 20.5924C63.2758 20.4413 63.3599 20.27 63.4175 20.08C63.4751 19.89 63.5032 19.6953 63.5032 19.4976C63.5032 19.2951 63.4736 19.0973 63.4144 18.9073C63.3537 18.7173 63.2649 18.5476 63.1466 18.4028C63.0282 18.2564 62.8834 18.1396 62.7121 18.0539C62.5423 17.9667 62.3445 17.9231 62.1218 17.9231C61.8898 17.9231 61.6873 17.9698 61.5176 18.0617C61.3463 18.152 61.203 18.2719 61.0862 18.4214C60.971 18.5694 60.8838 18.7391 60.8261 18.9291C60.7701 19.1207 60.742 19.3138 60.742 19.5116ZM65.143 19.4602C65.143 19.144 65.2022 18.8279 65.3221 18.5133C65.4405 18.1987 65.6133 17.9184 65.8407 17.6708C66.0681 17.4232 66.3453 17.2239 66.6723 17.0697C66.9994 16.9171 67.37 16.8392 67.7858 16.8392C68.281 16.8392 68.7093 16.9467 69.0737 17.1585C69.4381 17.3718 69.7091 17.649 69.8866 17.9901L68.9507 18.6441C68.8915 18.5055 68.8168 18.3903 68.7249 18.2984C68.633 18.2065 68.5333 18.1333 68.4243 18.0757C68.3153 18.0181 68.2047 17.9792 68.0895 17.9574C67.9758 17.934 67.8652 17.9231 67.7562 17.9231C67.5242 17.9231 67.3202 17.9714 67.1473 18.0648C66.9744 18.1583 66.8312 18.2797 66.7175 18.4277C66.6038 18.5772 66.5197 18.7454 66.4652 18.9338C66.4107 19.1207 66.3827 19.3122 66.3827 19.5053C66.3827 19.7125 66.4154 19.9134 66.4792 20.1065C66.5431 20.2996 66.6365 20.4693 66.758 20.6188C66.8795 20.7668 67.0243 20.8836 67.1956 20.9708C67.3669 21.058 67.5584 21.1 67.7718 21.1C67.8793 21.1 67.9929 21.0876 68.1082 21.0595C68.225 21.0331 68.3371 20.991 68.443 20.9334C68.5489 20.8773 68.647 20.8026 68.7358 20.7107C68.8245 20.6188 68.8962 20.5067 68.9507 20.3728L69.9458 20.9599C69.8664 21.153 69.7496 21.3258 69.5939 21.4785C69.4381 21.6326 69.2575 21.7619 69.055 21.8647C68.8526 21.969 68.6377 22.0484 68.4087 22.103C68.1814 22.1575 67.9587 22.1839 67.7407 22.1839C67.3607 22.1839 67.0103 22.1061 66.691 21.9503C66.3718 21.7946 66.0977 21.5875 65.8672 21.3305C65.6367 21.0736 65.4592 20.7808 65.333 20.4553C65.2069 20.1283 65.143 19.7966 65.143 19.4602ZM70.5547 22.1403V16.8688H71.7726V22.1403H70.5547ZM74.2144 16.8688H75.3123L77.2356 22.1403H75.9882L75.5802 20.9599H73.9403L73.5386 22.1403H72.2911L74.2144 16.8688ZM75.3793 20.1205L74.7642 18.2579L74.1319 20.1205H75.3793ZM80.8066 17.9387H79.2025V22.1403H77.9847V17.9387H76.3744V16.8688H80.8066V17.9387ZM81.3999 22.1403V16.8688H82.6177V22.1403H81.3999ZM85.9348 22.1839C85.544 22.1839 85.1873 22.1076 84.8665 21.955C84.5441 21.8008 84.2701 21.5984 84.0427 21.3492C83.8153 21.1 83.6378 20.8135 83.5116 20.4911C83.3855 20.1703 83.3217 19.8386 83.3217 19.4976C83.3217 19.1503 83.3886 18.817 83.5194 18.4946C83.6502 18.1738 83.834 17.8904 84.0676 17.6459C84.3028 17.3998 84.5815 17.2052 84.9039 17.0588C85.2247 16.9124 85.5767 16.8392 85.9582 16.8392C86.3491 16.8392 86.7042 16.9171 87.0265 17.0697C87.3473 17.2239 87.623 17.4263 87.8503 17.6786C88.0777 17.9309 88.2537 18.2174 88.3767 18.5398C88.5013 18.8606 88.5636 19.1876 88.5636 19.5194C88.5636 19.8651 88.4966 20.1999 88.3658 20.5223C88.235 20.8431 88.0528 21.1265 87.8208 21.371C87.5887 21.6171 87.3115 21.8133 86.9891 21.9612C86.6683 22.1107 86.3164 22.1839 85.9348 22.1839ZM84.5613 19.5116C84.5613 19.7156 84.5924 19.9118 84.6516 20.1018C84.7108 20.2933 84.798 20.4615 84.9148 20.611C85.0316 20.759 85.1764 20.8773 85.3493 20.9677C85.5221 21.0564 85.7199 21.1 85.9426 21.1C86.1747 21.1 86.3787 21.0533 86.5515 20.9599C86.7244 20.8649 86.8677 20.7434 86.9814 20.5924C87.095 20.4413 87.1807 20.27 87.2383 20.08C87.2944 19.89 87.324 19.6953 87.324 19.4976C87.324 19.2951 87.2944 19.0973 87.2336 18.9073C87.1745 18.7173 87.0857 18.5476 86.9673 18.4028C86.849 18.2564 86.7042 18.1396 86.5328 18.0539C86.3615 17.9667 86.1653 17.9231 85.9426 17.9231C85.7106 17.9231 85.5081 17.9698 85.3384 18.0617C85.1671 18.152 85.0238 18.2719 84.907 18.4214C84.7902 18.5694 84.7046 18.7391 84.6469 18.9291C84.5909 19.1207 84.5613 19.3138 84.5613 19.5116ZM90.4853 19.1254V22.1403H89.2675V16.8688H90.2175L92.6749 19.9647V16.8688H93.8927V22.1403H92.9132L90.4853 19.1254ZM98.94 22.1839C98.5491 22.1839 98.1925 22.1076 97.8717 21.955C97.5493 21.8008 97.2753 21.5984 97.0479 21.3492C96.8205 21.1 96.643 20.8135 96.5168 20.4911C96.3907 20.1703 96.3268 19.8386 96.3268 19.4976C96.3268 19.1503 96.3923 18.817 96.5246 18.4946C96.6554 18.1738 96.8392 17.8904 97.0728 17.6459C97.308 17.3998 97.5867 17.2052 97.9091 17.0588C98.2299 16.9124 98.5818 16.8392 98.9634 16.8392C99.3543 16.8392 99.7093 16.9171 100.032 17.0697C100.353 17.2239 100.628 17.4263 100.856 17.6786C101.083 17.9309 101.259 18.2174 101.382 18.5398C101.506 18.8606 101.569 19.1876 101.569 19.5194C101.569 19.8651 101.502 20.1999 101.371 20.5223C101.24 20.8431 101.058 21.1265 100.826 21.371C100.594 21.6171 100.317 21.8133 99.9943 21.9612C99.6735 22.1107 99.3216 22.1839 98.94 22.1839ZM97.5665 19.5116C97.5665 19.7156 97.5961 19.9118 97.6568 20.1018C97.716 20.2933 97.8032 20.4615 97.92 20.611C98.0352 20.759 98.1801 20.8773 98.3545 20.9677C98.5273 21.0564 98.7251 21.1 98.9478 21.1C99.1799 21.1 99.3839 21.0533 99.5567 20.9599C99.7296 20.8649 99.8729 20.7434 99.9865 20.5924C100.1 20.4413 100.186 20.27 100.244 20.08C100.3 19.89 100.329 19.6953 100.329 19.4976C100.329 19.2951 100.298 19.0973 100.239 18.9073C100.18 18.7173 100.091 18.5476 99.9725 18.4028C99.8526 18.2564 99.7093 18.1396 99.538 18.0539C99.3667 17.9667 99.1705 17.9231 98.9478 17.9231C98.7158 17.9231 98.5133 17.9698 98.3436 18.0617C98.1723 18.152 98.029 18.2719 97.9122 18.4214C97.7954 18.5694 97.7097 18.7391 97.6521 18.9291C97.5961 19.1207 97.5665 19.3138 97.5665 19.5116ZM102.273 22.1403V16.8688H105.851V17.9387H103.491V19.074H105.436V20.0613H103.491V22.1403H102.273ZM47.0766 27.1315V30.145H45.8587V24.875H46.8087L49.2661 27.9694V24.875H50.4824V30.145H49.5029L47.0766 27.1315ZM51.4931 30.145V24.875H52.7094V30.145H51.4931ZM57.3424 29.6248C56.9406 29.997 56.4781 30.1823 55.9533 30.1823C55.6076 30.1823 55.2805 30.1169 54.9737 29.9846C54.6669 29.8537 54.3991 29.67 54.1686 29.4317C53.9381 29.195 53.7559 28.9084 53.6235 28.5752C53.4896 28.2404 53.4226 27.8728 53.4226 27.4726C53.4226 27.1113 53.4896 26.7702 53.6235 26.4479C53.7559 26.1271 53.9412 25.8468 54.1764 25.61C54.4115 25.3718 54.6887 25.1833 55.0111 25.0447C55.3335 24.9061 55.6792 24.8376 56.0498 24.8376C56.5404 24.8376 56.9687 24.9404 57.3346 25.146C57.7006 25.3515 57.9747 25.6318 58.1584 25.9885L57.2521 26.6706C57.1337 26.4339 56.9624 26.2485 56.7366 26.1177C56.5124 25.9869 56.2679 25.9215 56.0062 25.9215C55.8022 25.9215 55.6185 25.962 55.4534 26.043C55.2867 26.1255 55.145 26.2392 55.0267 26.3856C54.9068 26.5304 54.8149 26.7002 54.751 26.8933C54.6872 27.0864 54.6545 27.2951 54.6545 27.5178C54.6545 27.7451 54.6887 27.9554 54.7588 28.1485C54.8273 28.3416 54.9239 28.5082 55.0485 28.6484C55.1715 28.7901 55.3195 28.9007 55.4892 28.9801C55.6605 29.0579 55.8505 29.0984 56.0576 29.0984C56.5326 29.0984 56.9609 28.8773 57.3424 28.4381V28.2746H56.3177V27.3916H58.3516V30.145H57.3424V29.6248ZM62.8569 29.0766V30.145H59.1536V24.875H62.7899V25.9433H60.3698V26.968H62.4489V27.9554H60.3698V29.0766H62.8569ZM63.5997 30.145V24.875H65.9746C66.2223 24.875 66.4512 24.9264 66.6614 25.0307C66.8717 25.1351 67.0539 25.2705 67.2065 25.4387C67.3607 25.6069 67.4806 25.7969 67.5678 26.0103C67.6534 26.2236 67.697 26.4385 67.697 26.6566C67.697 26.8201 67.6768 26.9758 67.6379 27.1269C67.5974 27.2779 67.5413 27.4212 67.4666 27.5536C67.3934 27.6875 67.303 27.8074 67.1956 27.9149C67.0897 28.0208 66.9698 28.1111 66.8358 28.1859L67.9945 30.145H66.6209L65.6118 28.4444H64.8176V30.145H63.5997ZM64.8176 27.3838H65.931C66.0743 27.3838 66.1973 27.3153 66.3017 27.1798C66.406 27.0428 66.4574 26.8684 66.4574 26.6566C66.4574 26.4385 66.3982 26.2657 66.2799 26.1364C66.16 26.0072 66.0323 25.9433 65.8937 25.9433H64.8176V27.3838ZM68.5723 30.145V24.875H69.7901V30.145H68.5723ZM72.232 24.875H73.3314L75.2532 30.145H74.0058L73.5977 28.9645H71.9579L71.5576 30.145H70.3102L72.232 24.875ZM73.3984 28.1251L72.7817 26.2626L72.151 28.1251H73.3984Z" fill="#29298D"/>
<path d="M15.0077 0L17.4309 1.5324L14.8053 3.13178L15.0077 0ZM34.2827 24.9156L36.7059 26.4464L34.2967 28.01L34.2827 24.9156ZM30.9189 8.42978L33.4916 7.16368L33.5663 10.0354L30.9189 8.42978ZM21.6217 36.1361L21.4924 39L18.94 37.681L21.6217 36.1361ZM5.67936 30.6356L3.24683 31.8815L2.89799 29.0565L5.67936 30.6356ZM2.29686 14.0034L0.00292969 12.5193L2.27506 10.8047L2.29686 14.0034Z" fill="#272727"/>
<path d="M15.0062 0L15.2616 20.267L12.7855 18.8794L12.5659 1.47946L15.0062 0ZM5.45986 5.79635L5.57354 14.8382L3.0974 13.4506L3.01953 7.27425L5.45986 5.79635ZM10.2097 2.90908L10.395 17.5386L7.92821 16.151L7.77871 4.38698L10.2097 2.90908Z" fill="#F72434"/>
<path d="M0 12.5146L17.551 22.6513L15.092 24.0715L0.0233589 15.3677L0 12.5146ZM0.102784 23.6806L7.933 28.2031L5.47243 29.6234L0.124584 26.5337L0.102784 23.6806ZM0.0482766 18.1226L12.7171 25.442L10.2627 26.8529L0.0747531 20.9678L0.0482766 18.1226Z" fill="#29298D"/>
<path d="M3.23926 31.8784L20.7467 21.6655L20.7607 24.5045L5.72786 33.2738L3.23926 31.8784ZM12.9865 37.3275L20.7965 32.7708L20.8105 35.6098L15.4767 38.7213L12.9865 37.3275ZM8.13236 34.6178L20.7716 27.2454L20.7794 30.0766L10.6178 36.0038L8.13236 34.6178Z" fill="#F72434"/>
<path d="M21.4941 38.9984L21.5751 18.7314L24.031 20.1595L23.9594 37.5626L21.4941 38.9984ZM31.1355 33.364L31.1729 24.3207L33.6257 25.7503L33.6008 31.9266L31.1355 33.364ZM26.339 36.1719L26.3981 21.5409L28.8416 22.9705L28.7933 34.7345L26.339 36.1719Z" fill="#29298D"/>
<path d="M36.7017 26.459L19.1865 16.2601L21.6502 14.8491L36.6877 23.6075L36.7017 26.459ZM36.6379 15.2914L28.8248 10.7409L31.2885 9.33154L36.6239 12.4384L36.6379 15.2914ZM36.6737 20.8495L24.0298 13.488L26.4888 12.0849L36.655 18.0043L36.6737 20.8495Z" fill="#F72434"/>
<path d="M33.4983 7.1731L15.9053 17.2396L15.9162 14.4006L31.0206 5.75905L33.4983 7.1731ZM23.7962 1.64461L15.9473 6.13437L15.9582 3.29537L21.3185 0.229004L23.7962 1.64461ZM28.627 4.39328L15.9271 11.6582L15.9426 8.82853L26.154 2.98546L28.627 4.39328Z" fill="#29298D"/>
</svg>
